:SAMPLES-PER-SECOND 30
:FULLY-SPECIFIED
:DEGREES
954
root  -32.2699 40.2567 0.739115 -145.715 -80.5915 144.021
RightUpLeg  -10.9244 -12.5509 -8.00961
RightLeg  9.16014 2.30865 2.7004
RightFoot  0.629513 -0.174177 1.70431
RightToes  1.45519e-009 0 -3.6325e-017
Spine  13.9378 1.48224 8.96597
Spine1  3.8576 3.63389 -5.23183
HEad  -22.9777 -16.7628 -2.63685
LeftShoulder1  -0.504844 4.81474 -32.3721
LeftArm  2.36733 5.29295 -43.4968
LeftForeArm  32.4607 -15.2755 -6.71909
LeftHand  -0.250665 10.104 -4.61585
RightShoulder  -0.748494 -5.51395 30.556
RightArm  13.5721 -2.69878 38.8813
RightForeArm  3.56947 15.5032 5.19942
RightHand  -0.163912 4.17533 -2.26578
LeftUpLeg  -5.31956 11.2011 2.93541
LeftLeg  8.60801 10.36 -0.160833
LeftFoot  -0.292372 0.58087 -6.01054
LeftToes  -2.53752e-010 -2.07034e-011 -2.70101e-011
955
root  -31.925 40.2214 0.570833 -144.895 -80.5347 142.959
RightUpLeg  -11.2068 -12.397 -7.83538
RightLeg  9.16963 2.21716 2.68801
RightFoot  1.01042 -0.164176 1.59307
RightToes  1.45519e-009 0 -3.6325e-017
Spine  13.6161 1.56509 9.56037
Spine1  3.90813 3.83675 -5.41818
HEad  -22.5518 -17.3976 -3.30497
LeftShoulder1  -0.517611 4.84648 -32.4013
LeftArm  -1.0325 7.21059 -43.1809
LeftForeArm  35.1309 -13.1715 -7.25896
LeftHand  -0.276419 10.5861 -4.66058
RightShoulder  -0.805714 -5.6671 30.5981
RightArm  15.0004 -3.01346 39.4195
RightForeArm  2.8255 18.1397 4.87288
RightHand  -0.135931 4.34296 -1.89692
LeftUpLeg  -4.81131 16.2427 1.8432
LeftLeg  14.0333 7.57635 1.58722
LeftFoot  -2.83059 0.464968 -6.00164
LeftToes  -2.53752e-010 -2.07034e-011 -2.70101e-011
956
root  -31.5504 40.1548 0.438919 -146.001 -80.6821 143.599
RightUpLeg  -11.2724 -12.2599 -7.44281
RightLeg  9.19328 2.1489 2.80358
RightFoot  1.40824 -0.152533 1.4496
RightToes  1.45519e-009 0 -3.6325e-017
Spine  13.5881 1.60496 9.94479
Spine1  3.63369 3.87251 -5.05258
HEad  -21.977 -17.7156 -4.07585
LeftShoulder1  -0.538506 4.89449 -32.5631
LeftArm  -3.79584 9.39433 -42.7613
LeftForeArm  36.3761 -11.6931 -7.26663
LeftHand  -0.281404 10.5857 -4.76686
RightShoulder  -0.849474 -5.77592 30.7591
RightArm  16.2512 -3.42634 39.5172
RightForeArm  2.08216 21.2015 4.69581
RightHand  -0.167107 4.9257 -2.17712
LeftUpLeg  -3.96731 18.7679 1.58984
LeftLeg  20.0771 5.85343 2.80173
LeftFoot  -4.93235 0.359751 -5.93588
LeftToes  -2.53752e-010 -2.07034e-011 -2.70101e-011
957
root  -31.2153 40.0726 0.321883 -145.632 -81.1956 142.913
RightUpLeg  -11.4355 -12.4421 -7.21345
RightLeg  9.41742 1.96105 3.12275
RightFoot  1.59376 -0.144685 1.37011
RightToes  1.45519e-009 0 -3.6325e-017
Spine  12.0533 1.4505 10.165
Spine1  4.84336 3.65015 -4.64024
HEad  -21.9676 -18.0457 -3.86079
LeftShoulder1  -0.492206 4.79905 -31.863
LeftArm  -6.40181 11.1904 -43.1957
LeftForeArm  37.4222 -10.1809 -7.0554
LeftHand  -0.285908 10.7255 -4.73278
RightShoulder  -0.861878 -5.78627 31.1316
RightArm  17.0778 -3.11527 39.6745
RightForeArm  2.55046 23.6394 4.91733
RightHand  -0.116625 4.68379 -1.63745
LeftUpLeg  -2.72196 17.4454 1.46977
LeftLeg  25.4063 5.43594 3.13225
LeftFoot  -6.7812 0.303157 -6.5474
LeftToes  -2.53752e-010 -2.07034e-011 -2.70101e-011
958
root  -30.7774 39.943 0.236311 -147.882 -81.8475 145.051
RightUpLeg  -12.0459 -12.1454 -6.38635
RightLeg  9.6532 1.18975 3.22983
RightFoot  1.99815 -0.129083 1.21664
RightToes  1.45519e-009 0 -3.6325e-017
Spine  11.3443 1.43095 10.3625
Spine1  4.88358 3.42141 -3.63711
HEad  -22.2053 -18.5221 -3.63803
LeftShoulder1  -0.535825 4.88965 -32.5107
LeftArm  -6.83212 12.0199 -42.4356
LeftForeArm  37.0945 -9.17512 -7.16698
LeftHand  -0.351272 11.5505 -5.16718
RightShoulder  -0.868304 -5.81834 30.8927
RightArm  16.8111 -3.1262 40.1016
RightForeArm  3.85509 25.7575 5.32329
RightHand  -0.153931 4.56961 -2.08214
LeftUpLeg  -1.98056 16.3691 1.58306
LeftLeg  30.657 3.68738 2.69273
LeftFoot  -8.03862 0.232891 -6.3965
LeftToes  -2.53752e-010 -2.07034e-011 -2.70101e-011
959
root  -30.2506 39.7909 0.169856 -149.752 -82.4129 146.601
RightUpLeg  -12.6398 -12.0165 -5.7895
RightLeg  10.0433 0.679989 3.40278
RightFoot  2.33748 -0.121934 1.14997
RightToes  1.45519e-009 0 -3.6325e-017
Spine  10.9411 1.36345 10.4497
Spine1  5.00351 3.2768 -3.06043
HEad  -22.2954 -19.0313 -3.02246
LeftShoulder1  -0.592172 5.02251 -32.8443
LeftArm  -6.8447 12.5437 -41.879
LeftForeArm  37.516 -9.304 -7.07212
LeftHand  -0.448826 12.0332 -6.42788
RightShoulder  -0.858767 -5.79274 30.8896
RightArm  16.0425 -2.9121 40.7123
RightForeArm  5.60387 27.1177 5.54455
RightHand  -0.144558 4.38509 -1.99877
LeftUpLeg  -0.735143 15.3712 1.55909
LeftLeg  34.4975 1.08126 1.15444
LeftFoot  -9.03472 0.205301 -7.67197
LeftToes  -2.53752e-010 -2.07034e-011 -2.70101e-011
960
root  -29.6738 39.6271 0.134127 -152.346 -82.8933 148.68
RightUpLeg  -13.1879 -11.76 -5.16316
RightLeg  10.4435 0.13073 3.36808
RightFoot  2.77375 -0.130116 1.20308
RightToes  1.45519e-009 0 -3.6325e-017
Spine  10.8102 1.37221 10.6985
Spine1  5.07527 3.34147 -2.83383
HEad  -22.0658 -19.2528 -2.88201
LeftShoulder1  -0.556586 4.94148 -32.5657
LeftArm  -6.74156 12.1658 -41.897
LeftForeArm  38.3228 -8.70028 -7.27698
LeftHand  -0.411183 12.1083 -5.71293
RightShoulder  -0.892008 -5.86299 31.1932
RightArm  15.6864 -2.67434 40.9627
RightForeArm  5.98908 28.016 5.73332
RightHand  -0.141916 4.38034 -1.968
LeftUpLeg  0.938557 14.5411 1.55274
LeftLeg  36.9827 -1.67728 -0.991456
LeftFoot  -9.90281 0.195992 -10.7645
LeftToes  -2.53752e-010 -2.07034e-011 -2.70101e-011
961
root  -28.9967 39.4415 0.127029 -152.55 -83.8581 148.555
RightUpLeg  -13.8989 -11.7446 -4.73224
RightLeg  10.6129 -0.92605 3.46671
RightFoot  3.37879 -0.151211 1.34896
RightToes  1.45519e-009 0 -3.6325e-017
Spine  10.6694 1.28031 10.848
Spine1  4.90074 3.23254 -2.54963
HEad  -21.4836 -19.7044 -2.96949
LeftShoulder1  -0.495088 4.78694 -32.447
LeftArm  -6.57488 11.118 -42.15
LeftForeArm  38.7436 -8.58968 -7.38967
LeftHand  -0.410124 11.6363 -6.01421
RightShoulder  -0.895969 -5.87832 31.1179
RightArm  15.1688 -2.46586 41.4912
RightForeArm  5.88861 28.1497 5.77068
RightHand  -0.154588 4.52401 -2.09707
LeftUpLeg  2.2255 13.2608 1.38268
LeftLeg  38.1796 -4.03479 -3.0224
LeftFoot  -9.38616 0.270706 -12.3355
LeftToes  -2.53752e-010 -2.07034e-011 -2.70101e-011
962
root  -28.2631 39.2628 0.120007 -151.816 -84.5571 147.399
RightUpLeg  -14.578 -11.5714 -4.3939
RightLeg  10.5643 -1.75922 3.35782
RightFoot  4.26437 -0.162846 1.40155
RightToes  1.45519e-009 0 -3.6325e-017
Spine  10.5366 1.24578 10.6041
Spine1  4.88776 3.18899 -2.49667
HEad  -20.9808 -19.6307 -3.05223
LeftShoulder1  -0.546173 4.92561 -32.2652
LeftArm  -5.56987 9.48875 -42.3924
LeftForeArm  38.2886 -9.18213 -7.6203
LeftHand  -0.623233 13.5214 -7.47736
RightShoulder  -0.898506 -5.87493 31.2761
RightArm  15.2208 -2.04566 41.8825
RightForeArm  5.53096 28.0344 5.76308
RightHand  -0.164663 4.87826 -2.16076
LeftUpLeg  3.87929 12.1609 1.05948
LeftLeg  37.1117 -5.71018 -4.26061
LeftFoot  -8.31842 0.40055 -13.4575
LeftToes  -2.53752e-010 -2.07034e-011 -2.70101e-011
963
root  -27.4727 39.1469 0.119442 -145.046 -85.4929 140.33
RightUpLeg  -14.8644 -11.558 -4.4956
RightLeg  9.43464 -2.90387 3.39461
RightFoot  5.78304 -0.163015 1.34891
RightToes  1.45519e-009 0 -3.6325e-017
Spine  9.87882 1.19891 9.86467
Spine1  5.39364 2.96886 -2.47345
HEad  -20.5702 -19.1652 -3.67911
LeftShoulder1  -0.547243 4.92315 -32.4049
LeftArm  -4.55739 7.21607 -42.8284
LeftForeArm  37.3039 -10.4091 -7.59466
LeftHand  -0.331273 11.3874 -4.9966
RightShoulder  -0.833577 -5.72528 30.8836
RightArm  15.2902 -1.53971 42.5736
RightForeArm  5.91044 27.6149 5.64363
RightHand  -0.149559 4.64231 -2.00968
LeftUpLeg  5.50677 9.9244 0.0157048
LeftLeg  33.5833 -6.15148 -4.04106
LeftFoot  -11.0947 0.10102 -12.5335
LeftToes  -2.53752e-010 -2.07034e-011 -2.70101e-011
964
root  -26.641 39.0744 0.135512 -134.411 -85.8908 129.254
RightUpLeg  -14.647 -11.515 -4.94866
RightLeg  7.39957 -3.68383 3.47078
RightFoot  7.63003 -0.197623 1.49253
RightToes  1.45519e-009 0 -3.6325e-017
Spine  9.47153 1.33399 9.00678
Spine1  5.88156 3.05486 -3.20516
HEad  -19.6555 -19.0764 -3.94461
LeftShoulder1  -0.452938 4.6963 -31.8285
LeftArm  -2.08603 5.08606 -43.921
LeftForeArm  34.5957 -12.5274 -7.27779
LeftHand  -0.217488 10.2341 -3.73806
RightShoulder  -0.739505 -5.50444 30.2758
RightArm  15.0974 -1.63207 43.3998
RightForeArm  6.64104 27.5688 5.59349
RightHand  -0.093206 4.17734 -1.40271
LeftUpLeg  7.45886 8.32504 -1.35189
LeftLeg  28.4323 -5.52524 -2.90648
LeftFoot  -13.9432 -0.0941983 -8.05536
LeftToes  -2.53752e-010 -2.07034e-011 -2.70101e-011
